<svg width="25" height="26" viewBox="0 0 25 26" fill="none" xmlns="http://www.w3.org/2000/svg">
<path d="M14.6656 1.92407C14.831 1.92408 14.9922 1.97658 15.1258 2.07401C15.2595 2.17145 15.3588 2.30879 15.4094 2.46626L16.2688 5.13657C16.6297 5.31313 16.975 5.51157 17.3047 5.73501L20.0485 5.14438C20.2102 5.10985 20.3788 5.12755 20.5299 5.19494C20.6809 5.26233 20.8067 5.37593 20.8891 5.51938L23.0547 9.26782C23.1374 9.41119 23.1724 9.57712 23.1547 9.74168C23.137 9.90624 23.0676 10.0609 22.9563 10.1834L21.0735 12.2616C21.1009 12.6601 21.1009 13.06 21.0735 13.4584L22.9563 15.5397C23.0676 15.6622 23.137 15.8169 23.1547 15.9815C23.1724 16.146 23.1374 16.312 23.0547 16.4553L20.8891 20.2053C20.8065 20.3485 20.6806 20.4618 20.5296 20.5289C20.3785 20.596 20.2101 20.6134 20.0485 20.5788L17.3047 19.9881C16.9766 20.21 16.6297 20.41 16.2703 20.5866L15.4094 23.2569C15.3588 23.4144 15.2595 23.5517 15.1258 23.6491C14.9922 23.7466 14.831 23.7991 14.6656 23.7991H10.3344C10.169 23.7991 10.0079 23.7466 9.8742 23.6491C9.74054 23.5517 9.64126 23.4144 9.59064 23.2569L8.73283 20.5881C8.37286 20.4121 8.02566 20.2111 7.69377 19.9866L4.95158 20.5788C4.78981 20.6133 4.62124 20.5956 4.47018 20.5282C4.31911 20.4608 4.19333 20.3472 4.11095 20.2038L1.94533 16.4553C1.86263 16.312 1.82761 16.146 1.8453 15.9815C1.86299 15.8169 1.93249 15.6622 2.04377 15.5397L3.92658 13.4584C3.89931 13.061 3.89931 12.6621 3.92658 12.2647L2.04377 10.1834C1.93249 10.0609 1.86299 9.90624 1.8453 9.74168C1.82761 9.57712 1.86263 9.41119 1.94533 9.26782L4.11095 5.51782C4.19355 5.37466 4.31943 5.26138 4.47048 5.19427C4.62153 5.12717 4.78997 5.1097 4.95158 5.14438L7.69377 5.73657C8.02502 5.51313 8.37189 5.31157 8.73283 5.13501L9.5922 2.46626C9.64265 2.3093 9.74147 2.17232 9.8745 2.07493C10.0075 1.97754 10.168 1.92474 10.3328 1.92407H14.6641H14.6656ZM14.0938 3.48657H10.9063L10.0188 6.24751L9.42033 6.5397C9.12614 6.68366 8.84214 6.84759 8.57033 7.03032L8.0172 7.40532L5.1797 6.79282L3.58595 9.55532L5.53127 11.7084L5.48439 12.3709C5.46194 12.6976 5.46194 13.0255 5.48439 13.3522L5.53127 14.0147L3.58283 16.1678L5.17814 18.9303L8.01564 18.3194L8.56877 18.6928C8.84058 18.8756 9.12458 19.0395 9.41877 19.1834L10.0172 19.4756L10.9063 22.2366H14.0969L14.9875 19.4741L15.5844 19.1834C15.8783 19.0398 16.1618 18.8759 16.4328 18.6928L16.9844 18.3194L19.8235 18.9303L21.4172 16.1678L19.4703 14.0147L19.5172 13.3522C19.5397 13.025 19.5397 12.6966 19.5172 12.3694L19.4703 11.7069L21.4188 9.55532L19.8235 6.79282L16.9844 7.4022L16.4328 7.03032C16.1618 6.84722 15.8783 6.68328 15.5844 6.5397L14.9875 6.24907L14.0953 3.48657H14.0938ZM12.5 8.17407C13.7432 8.17407 14.9355 8.66793 15.8146 9.54701C16.6937 10.4261 17.1875 11.6184 17.1875 12.8616C17.1875 14.1048 16.6937 15.2971 15.8146 16.1761C14.9355 17.0552 13.7432 17.5491 12.5 17.5491C11.2568 17.5491 10.0645 17.0552 9.18545 16.1761C8.30638 15.2971 7.81252 14.1048 7.81252 12.8616C7.81252 11.6184 8.30638 10.4261 9.18545 9.54701C10.0645 8.66793 11.2568 8.17407 12.5 8.17407ZM12.5 9.73657C11.6712 9.73657 10.8764 10.0658 10.2903 10.6519C9.70426 11.2379 9.37502 12.0328 9.37502 12.8616C9.37502 13.6904 9.70426 14.4852 10.2903 15.0713C10.8764 15.6573 11.6712 15.9866 12.5 15.9866C13.3288 15.9866 14.1237 15.6573 14.7097 15.0713C15.2958 14.4852 15.625 13.6904 15.625 12.8616C15.625 12.0328 15.2958 11.2379 14.7097 10.6519C14.1237 10.0658 13.3288 9.73657 12.5 9.73657Z" fill="black"/>
</svg>
